<svg id="settings" viewBox="0 0 24 24">
<path d="M15.4,12c0-0.9-0.3-1.8-1-2.4c-0.7-0.7-1.5-1-2.4-1s-1.8,0.3-2.4,1c-0.7,0.7-1,1.5-1,2.4s0.3,1.8,1,2.4c0.7,0.7,1.5,1,2.4,1  c0.9,0,1.8-0.3,2.4-1C15.1,13.8,15.4,12.9,15.4,12z M22.3,10.5v3c0,0.1,0,0.2-0.1,0.3C22.1,13.9,22,14,21.9,14l-2.5,0.4  c-0.2,0.5-0.3,0.9-0.5,1.2c0.3,0.4,0.8,1.1,1.4,1.8c0.1,0.1,0.1,0.2,0.1,0.3s0,0.2-0.1,0.3c-0.2,0.3-0.7,0.8-1.3,1.4  c-0.6,0.6-1.1,1-1.3,1c-0.1,0-0.2,0-0.3-0.1l-1.8-1.4c-0.4,0.2-0.8,0.4-1.2,0.5c-0.1,1.2-0.3,2-0.4,2.5c-0.1,0.2-0.2,0.4-0.5,0.4h-3  c-0.1,0-0.2,0-0.3-0.1C10.1,22.1,10,22,10,21.9l-0.4-2.5c-0.4-0.1-0.8-0.3-1.2-0.5l-1.9,1.4c-0.1,0.1-0.2,0.1-0.3,0.1  c-0.1,0-0.2,0-0.3-0.1c-1.1-1-1.9-1.8-2.2-2.2c-0.1-0.1-0.1-0.2-0.1-0.3c0-0.1,0-0.2,0.1-0.3c0.1-0.2,0.4-0.5,0.7-0.9  s0.6-0.7,0.7-0.9c-0.2-0.4-0.4-0.9-0.5-1.3l-2.5-0.4c-0.1,0-0.2-0.1-0.3-0.2c-0.1-0.1-0.1-0.2-0.1-0.3v-3c0-0.1,0-0.2,0.1-0.3  C1.9,10.1,2,10,2.1,10l2.5-0.4c0.1-0.4,0.3-0.8,0.5-1.2C4.7,7.9,4.3,7.3,3.7,6.5C3.6,6.4,3.5,6.3,3.5,6.2c0-0.1,0-0.2,0.1-0.3  C3.9,5.6,4.3,5.1,5,4.5s1.1-1,1.3-1c0.1,0,0.2,0,0.3,0.1l1.8,1.4c0.4-0.2,0.8-0.4,1.2-0.5c0.1-1.2,0.3-2,0.4-2.5  c0.1-0.3,0.2-0.4,0.5-0.4h3c0.1,0,0.2,0,0.3,0.1C13.9,1.9,14,2,14,2.1l0.4,2.5c0.4,0.1,0.8,0.3,1.2,0.5l1.9-1.4  c0.1-0.1,0.2-0.1,0.3-0.1c0.1,0,0.2,0,0.3,0.1c1.2,1.1,1.9,1.8,2.2,2.3c0.1,0.1,0.1,0.2,0.1,0.3c0,0.1,0,0.2-0.1,0.3  c-0.1,0.2-0.4,0.5-0.7,0.9c-0.3,0.4-0.6,0.7-0.7,0.9c0.2,0.4,0.4,0.9,0.5,1.3l2.5,0.4c0.1,0,0.2,0.1,0.3,0.2S22.3,10.4,22.3,10.5  L22.3,10.5z"></path>
</svg>