<svg viewBox="0 0 112 23" xmlns="http://www.w3.org/2000/svg"><title>PagerDuty</title><path d="M108.764 4.724h2.764a4603.287 4603.287 0 01-5.896 14.934 5.103 5.103 0 01-4.738 3.237h-1.291v-2.25h1.251c1.11 0 2.111-.679 2.531-1.716.124-.305.243-.605.354-.897L98.691 4.724h2.915l2.436 7.25c.427 1.267.728 2.13 1.055 3.193h.05c.427-1.241.654-1.976 1.106-3.27l2.511-7.173zm-80.69 6.314c0 2.576 1.445 4.42 3.93 4.42 2.23 0 3.954-1.566 3.954-4.496 0-2.601-1.52-4.344-3.954-4.344s-3.93 1.743-3.93 4.42zm10.344 4.547c0 4.799-2.206 7.4-6.668 7.4-3.321 0-5.324-1.743-6.034-4.37h2.687c.457 1.213 1.42 2.3 3.398 2.3 3.042 0 4.132-1.895 4.132-5.482-.025 0-.025-.025-.05-.025-.66 1.136-2.13 2.147-4.463 2.147-3.752 0-6.135-2.703-6.135-6.492 0-3.94 2.586-6.592 6.16-6.592 2.308 0 3.702.985 4.463 2.071-.026-.278-.026-.556-.026-.834v-.833h2.536v10.71zm11.934-5.522c-.228-2.102-1.547-3.596-3.726-3.596-2.079 0-3.676 1.367-3.93 3.596h7.656zm-7.757 2.025c.102 2.33 1.597 4.178 4.183 4.178 1.825 0 2.712-.86 3.396-2h2.56c-.76 2.406-2.864 4.128-6.058 4.128-4.106 0-6.666-2.76-6.666-6.913 0-4.153 2.661-7.09 6.666-7.09 4.335 0 6.337 3.291 6.337 6.862v.835H42.595zm14.543-7.205v1.682c.43-1.23 1.723-2.008 3.218-2.008.33 0 .482.025.66.05v2.31a4.867 4.867 0 00-.888-.076c-2.407 0-2.863 1.757-2.863 4.393v6.826h-2.56V7.243c0-.829 0-1.556-.025-2.36h2.458zm29.955 11.302c-.676 1.13-1.953 2.209-4.182 2.209-3.056 0-4.558-1.883-4.558-5.296V4.89h2.529v7.254c0 2.585.852 4.141 2.905 4.141 2.705 0 3.18-2.46 3.18-5.346V4.89h2.53v11.195c0 .677 0 1.33.025 1.982h-2.43v-1.882zM95.232 4.79h2.459v1.96h-2.46v7.911c0 1.256.628 1.633 1.607 1.633.175 0 .477-.025.627-.05v1.884c-.376.05-.652.1-.979.1-2.334 0-3.814-.779-3.814-3.416V6.748h-1.983V4.79h1.983V1.223h2.56v3.566zM0 18.06v-4.834h2.667v4.834H0zm5.843-9.308c2.231 0 3.93-.888 3.93-3.245 0-2.18-1.37-3.144-4.107-3.119l-3.004.026v6.338h3.181zM10.008.943c1.546.837 2.495 2.485 2.495 4.538 0 1.901-.772 3.55-2.267 4.538-1.37.913-2.923 1.04-5.001 1.04H0V.056h5.26c2.332 0 3.328.127 4.748.887zm55.17 14.876h1.534c4.777 0 7.274-1.83 7.265-6.723-.008-4.304-2.488-6.774-7.014-6.774-.88-.004-1.785.025-1.785.025V15.82zM62.516.056h4.397c6.58.043 9.748 3.265 9.773 9.04.02 4.918-2.522 8.9-9.346 8.964h-4.824V.056zM15.099 14.538c0 1.235 1.014 2.016 2.636 2.016 2.382 0 3.65-1.437 3.65-4.007 0-.328 0-.555.025-.706-4.334.428-6.311.857-6.311 2.697zm6.666 3.604c-.076-.53-.076-.857-.127-1.815-1.014 1.437-2.357 2.067-4.486 2.067-2.788 0-4.816-1.361-4.816-3.831 0-2.848 2.738-3.78 6.286-4.26a53.442 53.442 0 012.737-.302c0-2.622-1.465-3.41-2.99-3.41-1.524 0-2.638 1.068-2.638 2.452h-2.483c0-2.687 2.128-4.486 5.179-4.486s5.416 1.261 5.416 6.1v2.57c0 2.142.102 3.705.33 4.915h-2.408z" fill-rule="evenodd"/></svg>